<?xml version="1.0" encoding="UTF-8"?>
<svg id="TEXTS" xmlns="http://www.w3.org/2000/svg" viewBox="0 0 187.54 57.7">
  <g>
    <path d="M21.83,3.99h128.56v44.51H21.83c-12.1-.24-21.83-10.11-21.83-22.26h0C0,14.08,9.74,4.21,21.83,3.99Z" style="fill: #fff; stroke-width: 0px;"/>
    <path d="M21.83,9.31h128.56v44.51H21.83c-12.1-.24-21.83-10.11-21.83-22.26h0C0,19.41,9.74,9.54,21.83,9.31Z" style="fill: #bac7df; stroke-width: 0px;"/>
    <path d="M21.83,6.4h128.56v44.51H21.83c-12.1-.24-21.83-10.11-21.83-22.26h0C0,16.5,9.74,6.63,21.83,6.4Z" style="fill: #f0f0f0; stroke-width: 0px;"/>
    <circle cx="161.36" cy="26.18" r="26.18" transform="translate(99.43 177.47) rotate(-76.96)" style="fill: #fff; stroke-width: 0px;"/>
    <circle cx="161.36" cy="31.51" r="26.18" transform="translate(24.98 123.33) rotate(-45)" style="fill: #bac7df; stroke-width: 0px;"/>
    <circle cx="161.36" cy="28.6" r="26.18" style="fill: #f0f0f0; stroke-width: 0px;"/>
    <g>
      <polygon points="163.39 23.15 157.85 23.15 157.85 18.37 145.34 28.88 157.85 39.39 157.85 34.61 163.39 34.61 163.39 23.15" style="fill: #df4000; stroke-width: 0px;"/>
      <polygon points="174.36 17.62 174.36 40.14 163.87 40.14 163.87 37.37 167.29 37.37 167.29 20.39 163.87 20.39 163.87 17.62 174.36 17.62" style="fill: #df4000; stroke-width: 0px;"/>
    </g>
  </g>
  <g>
    <path d="M25.47,25.1v-2.1c0-2.04-.03-3.69-2.28-3.69s-2.49,1.74-2.49,3.96v10.53c0,2.64.54,3.9,2.49,3.9,2.19,0,2.28-1.71,2.28-3.87v-2.19h4.26v1.95c0,4.11-1.32,7.14-5.97,7.38v1.5c2.22,0,3.72.99,3.72,2.85,0,2.13-1.89,3.03-4.08,3.03-.72,0-1.44-.12-2.16-.33v-1.89c.45.15,1.05.24,1.62.24,1.05,0,1.83-.3,1.83-1.11,0-1.08-1.23-1.47-2.64-1.62v-2.73c-4.44-.45-5.82-3.66-5.82-8.04v-8.67c0-4.98,1.59-8.13,6.93-8.13,4.98,0,6.57,2.76,6.57,6.99v2.04h-4.26Z" style="fill: #df4000; stroke-width: 0px;"/>
    <path d="M32.79,16.34h4.38v24.3h-4.38v-24.3Z" style="fill: #df4000; stroke-width: 0px;"/>
    <path d="M40.77,16.34h4.41v10.68l4.83-10.68h4.23l-4.65,10.83,5.13,13.47h-4.41l-4.05-11.04-1.08,1.83v9.21h-4.41v-24.3Z" style="fill: #df4000; stroke-width: 0px;"/>
    <path d="M56.7,16.34h4.38v24.3h-4.38v-24.3Z" style="fill: #df4000; stroke-width: 0px;"/>
    <path d="M71.13,40.96v1.5c2.22,0,3.72.99,3.72,2.85,0,2.13-1.89,3.03-4.08,3.03-.72,0-1.44-.12-2.16-.33v-1.89c.45.15,1.05.24,1.62.24,1.05,0,1.83-.3,1.83-1.11,0-1.08-1.23-1.47-2.64-1.62v-2.76c-3.51-.51-5.19-3.03-5.34-7.32l3.81-.75c.12,2.88.81,4.74,2.76,4.74,1.41,0,2.01-.96,2.01-2.28,0-2.1-1.08-3.27-2.67-4.65l-3.06-2.67c-1.74-1.5-2.82-3.18-2.82-5.88,0-3.84,2.4-6,6.27-6,4.56,0,5.85,3.06,6.09,6.6l-3.81.66c-.09-2.28-.42-3.99-2.37-3.99-1.32,0-2.04.99-2.04,2.28,0,1.65.69,2.55,1.98,3.66l3.03,2.67c1.98,1.71,3.63,3.84,3.63,7.05,0,3.39-2.31,5.82-5.76,5.97Z" style="fill: #df4000; stroke-width: 0px;"/>
    <path d="M89.88,31.37l-4.92-15.03h4.14l3,9.63,2.82-9.63h4.05l-4.86,15.03v9.27h-4.23v-9.27Z" style="fill: #df4000; stroke-width: 0px;"/>
    <path d="M103.66,16.34h4.74l4.86,24.3h-4.11l-.96-5.61h-4.23l-.99,5.61h-4.17l4.86-24.3ZM107.7,32.2l-1.65-10.2-1.65,10.2h3.3Z" style="fill: #df4000; stroke-width: 0px;"/>
    <path d="M115.54,16.34h7.14c4.35,0,6.21,2.52,6.21,6.9,0,4.77-2.58,6.6-6.51,6.6h-2.43v10.8h-4.41v-24.3ZM121.66,26.72c2.43,0,3.06-.93,3.06-3.51s-.33-3.75-3.06-3.75h-1.71v7.26h1.71Z" style="fill: #df4000; stroke-width: 0px;"/>
  </g>
</svg>