<?xml version="1.0" encoding="UTF-8"?>
<svg id="TEXTS" xmlns="http://www.w3.org/2000/svg" viewBox="0 0 216.2 53.31">
  <g>
    <path d="M29.63,10.52h156.93c16.35,0,29.63,13.28,29.63,29.63v3.02c0,5.59-4.54,10.14-10.14,10.14H10.14c-5.59,0-10.14-4.54-10.14-10.14v-3.02C0,23.8,13.28,10.52,29.63,10.52Z" style="fill: #bac7df; stroke-width: 0px;"/>
    <path d="M29.63,5.15h156.93c16.35,0,29.63,13.28,29.63,29.63v3.02c0,5.59-4.54,10.14-10.14,10.14H10.14c-5.59,0-10.14-4.54-10.14-10.14v-3.02C0,18.43,13.28,5.15,29.63,5.15Z" style="fill: #fff; stroke-width: 0px;"/>
    <path d="M29.63,7.17h156.93c16.35,0,29.63,13.28,29.63,29.63v3.02c0,5.59-4.54,10.14-10.14,10.14H10.14C4.54,49.96,0,45.42,0,39.83v-3.02C0,20.45,13.28,7.17,29.63,7.17Z" style="fill: #f0f0f0; stroke-width: 0px;"/>
    <g>
      <rect x="19.5" y="49.96" width="43.9" height="3.35" style="fill: #4589af; stroke-width: 0px;"/>
      <path d="M27.93,0h27.04c4.65,0,8.43,3.78,8.43,8.43v39.06H19.5V8.43c0-4.65,3.78-8.43,8.43-8.43Z" style="fill: #fff; stroke-width: 0px;"/>
      <path d="M27.93,2.47h27.04c4.65,0,8.43,3.78,8.43,8.43v39.06H19.5V10.9c0-4.65,3.78-8.43,8.43-8.43Z" style="fill: #68aad5; stroke-width: 0px;"/>
    </g>
    <g>
      <path d="M49.12,24.31h-15.03c-1.73,0-3.14,1.4-3.14,3.14v4.53c0,5.22,4.23,9.44,9.44,9.44h2.41c5.22,0,9.44-4.23,9.44-9.44v-4.53c0-1.73-1.4-3.14-3.14-3.14ZM42.64,33.9v2.61c0,.48-.39.87-.87.87h-.32c-.48,0-.87-.39-.87-.87v-2.61c-.9-.4-1.54-1.3-1.54-2.35,0-1.42,1.15-2.57,2.57-2.57s2.57,1.15,2.57,2.57c0,1.05-.63,1.95-1.54,2.35Z" style="fill: #fff; stroke-width: 0px;"/>
      <path d="M36.55,26.41c-.58,0-1.14-.32-1.41-.88l-1.13-2.32c-1.6-3.29-.22-7.26,3.06-8.86,3.29-1.6,7.26-.22,8.86,3.06l1.13,2.32c.38.78.05,1.72-.73,2.1-.78.38-1.72.05-2.1-.73l-1.13-2.32c-.84-1.73-2.94-2.46-4.67-1.61-1.73.84-2.46,2.94-1.61,4.67l1.13,2.32c.38.78.05,1.72-.72,2.1-.22.11-.45.16-.68.16Z" style="fill: #fff; stroke-width: 0px;"/>
    </g>
  </g>
  <g>
    <path d="M68.69,34.83v-8.44c0-5.4,1.82-8.69,7.94-8.69,5.71,0,7.7,2.67,7.7,7.32v1.3h-4.85v-1.43c0-2.42-.28-3.85-2.79-3.85-2.68,0-2.89,1.96-2.89,4.25v10.52c0,2.61.55,4.25,3.03,4.25s3.06-1.74,3.06-4.47v-2.36h-2.99v-2.89h7.56v12.76h-3.3l-.34-2.45c-.76,1.61-2.13,2.79-4.71,2.79-5.5,0-7.43-3.32-7.43-8.63Z" style="fill: #68aad5; stroke-width: 0px;"/>
    <path d="M88.5,17.98h5.02v25.14h-5.02v-25.14ZM88.74,11.15h4.54v4.25h-4.54v-4.25Z" style="fill: #68aad5; stroke-width: 0px;"/>
    <path d="M97.82,17.98h6.7c5.57,0,8.73,1.61,8.73,6.67,0,3.01-.83,5.12-3.44,6.08l3.88,12.38h-5.09l-3.33-11.51h-2.41v11.51h-5.05v-25.14ZM104.49,28.75c2.92,0,3.99-1.15,3.99-3.85,0-2.54-.79-3.79-3.71-3.79h-1.89v7.64h1.62Z" style="fill: #68aad5; stroke-width: 0px;"/>
    <path d="M117.25,17.98h5.02v25.14h-5.02v-25.14ZM117.49,11.15h4.54v4.25h-4.54v-4.25Z" style="fill: #68aad5; stroke-width: 0px;"/>
    <path d="M133.95,43.46v1.55c2.54,0,4.26,1.02,4.26,2.95,0,2.2-2.17,3.13-4.67,3.13-.83,0-1.65-.12-2.48-.34v-1.96c.52.16,1.2.25,1.86.25,1.2,0,2.1-.31,2.1-1.15,0-1.12-1.41-1.52-3.03-1.68v-2.85c-4.02-.53-5.95-3.13-6.12-7.57l4.37-.78c.14,2.98.93,4.9,3.16,4.9,1.62,0,2.3-.99,2.3-2.36,0-2.17-1.24-3.38-3.06-4.81l-3.51-2.76c-1.99-1.55-3.23-3.29-3.23-6.08,0-3.97,2.75-6.21,7.18-6.21,5.23,0,6.7,3.17,6.98,6.83l-4.37.68c-.1-2.36-.48-4.13-2.72-4.13-1.51,0-2.34,1.02-2.34,2.36,0,1.71.79,2.64,2.27,3.79l3.47,2.76c2.27,1.77,4.16,3.97,4.16,7.29,0,3.51-2.65,6.02-6.6,6.18Z" style="fill: #68aad5; stroke-width: 0px;"/>
    <path d="M155.79,33.53l-5.64-15.55h4.74l3.44,9.96,3.23-9.96h4.64l-5.57,15.55v9.59h-4.85v-9.59Z" style="fill: #68aad5; stroke-width: 0px;"/>
    <path d="M171.75,17.98h5.43l5.57,25.14h-4.71l-1.1-5.8h-4.85l-1.13,5.8h-4.78l5.57-25.14ZM176.39,34.4l-1.89-10.55-1.89,10.55h3.78Z" style="fill: #68aad5; stroke-width: 0px;"/>
    <path d="M185.54,17.98h8.18c4.98,0,7.12,2.61,7.12,7.14,0,4.93-2.96,6.83-7.46,6.83h-2.79v11.17h-5.05v-25.14ZM192.55,28.72c2.78,0,3.51-.96,3.51-3.63s-.38-3.88-3.51-3.88h-1.96v7.51h1.96Z" style="fill: #68aad5; stroke-width: 0px;"/>
  </g>
</svg>